<mxfile host="app.diagrams.net" modified="2023-10-24T14:19:41.735Z" agent="Mozilla/5.0 (Macintosh; Intel Mac OS X 10_15_7) AppleWebKit/537.36 (KHTML, like Gecko) Chrome/118.0.0.0 Safari/537.36" etag="etYccprOQGotZr2EwAI2" version="22.0.6" type="github">
  <diagram id="C5RBs43oDa-KdzZeNtuy" name="Page-1">
    <mxGraphModel dx="640" dy="1603" grid="1" gridSize="10" guides="1" tooltips="1" connect="1" arrows="1" fold="1" page="1" pageScale="1" pageWidth="827" pageHeight="1169" math="0" shadow="0">
      <root>
        <mxCell id="WIyWlLk6GJQsqaUBKTNV-0" />
        <mxCell id="WIyWlLk6GJQsqaUBKTNV-1" parent="WIyWlLk6GJQsqaUBKTNV-0" />
        <mxCell id="WIyWlLk6GJQsqaUBKTNV-2" value="" style="rounded=0;html=1;jettySize=auto;orthogonalLoop=1;fontSize=11;endArrow=block;endFill=0;endSize=8;strokeWidth=1;shadow=0;labelBackgroundColor=none;edgeStyle=orthogonalEdgeStyle;" parent="WIyWlLk6GJQsqaUBKTNV-1" source="WIyWlLk6GJQsqaUBKTNV-3" target="YrawLR0GKXedVqUMtWlx-1" edge="1">
          <mxGeometry relative="1" as="geometry">
            <mxPoint x="220" y="-20" as="targetPoint" />
          </mxGeometry>
        </mxCell>
        <mxCell id="WIyWlLk6GJQsqaUBKTNV-3" value="开始" style="rounded=1;whiteSpace=wrap;html=1;fontSize=12;glass=0;strokeWidth=1;shadow=0;" parent="WIyWlLk6GJQsqaUBKTNV-1" vertex="1">
          <mxGeometry x="160" y="-110" width="120" height="40" as="geometry" />
        </mxCell>
        <mxCell id="WIyWlLk6GJQsqaUBKTNV-4" value="Yes" style="rounded=0;html=1;jettySize=auto;orthogonalLoop=1;fontSize=11;endArrow=block;endFill=0;endSize=8;strokeWidth=1;shadow=0;labelBackgroundColor=none;edgeStyle=orthogonalEdgeStyle;" parent="WIyWlLk6GJQsqaUBKTNV-1" source="WIyWlLk6GJQsqaUBKTNV-6" target="WIyWlLk6GJQsqaUBKTNV-10" edge="1">
          <mxGeometry y="20" relative="1" as="geometry">
            <mxPoint as="offset" />
          </mxGeometry>
        </mxCell>
        <mxCell id="WIyWlLk6GJQsqaUBKTNV-5" value="No" style="edgeStyle=orthogonalEdgeStyle;rounded=0;html=1;jettySize=auto;orthogonalLoop=1;fontSize=11;endArrow=block;endFill=0;endSize=8;strokeWidth=1;shadow=0;labelBackgroundColor=none;" parent="WIyWlLk6GJQsqaUBKTNV-1" source="WIyWlLk6GJQsqaUBKTNV-6" target="WIyWlLk6GJQsqaUBKTNV-7" edge="1">
          <mxGeometry y="10" relative="1" as="geometry">
            <mxPoint as="offset" />
          </mxGeometry>
        </mxCell>
        <mxCell id="WIyWlLk6GJQsqaUBKTNV-6" value="与案情有关？" style="rhombus;whiteSpace=wrap;html=1;shadow=0;fontFamily=Helvetica;fontSize=12;align=center;strokeWidth=1;spacing=6;spacingTop=-4;" parent="WIyWlLk6GJQsqaUBKTNV-1" vertex="1">
          <mxGeometry x="170" y="170" width="100" height="80" as="geometry" />
        </mxCell>
        <mxCell id="WIyWlLk6GJQsqaUBKTNV-7" value="无关证据，丢弃" style="rounded=1;whiteSpace=wrap;html=1;fontSize=12;glass=0;strokeWidth=1;shadow=0;" parent="WIyWlLk6GJQsqaUBKTNV-1" vertex="1">
          <mxGeometry x="340" y="190" width="120" height="40" as="geometry" />
        </mxCell>
        <mxCell id="WIyWlLk6GJQsqaUBKTNV-8" value="Yes" style="rounded=0;html=1;jettySize=auto;orthogonalLoop=1;fontSize=11;endArrow=block;endFill=0;endSize=8;strokeWidth=1;shadow=0;labelBackgroundColor=none;edgeStyle=orthogonalEdgeStyle;" parent="WIyWlLk6GJQsqaUBKTNV-1" source="WIyWlLk6GJQsqaUBKTNV-10" target="WIyWlLk6GJQsqaUBKTNV-11" edge="1">
          <mxGeometry x="0.3333" y="20" relative="1" as="geometry">
            <mxPoint as="offset" />
          </mxGeometry>
        </mxCell>
        <mxCell id="WIyWlLk6GJQsqaUBKTNV-9" value="No" style="edgeStyle=orthogonalEdgeStyle;rounded=0;html=1;jettySize=auto;orthogonalLoop=1;fontSize=11;endArrow=block;endFill=0;endSize=8;strokeWidth=1;shadow=0;labelBackgroundColor=none;" parent="WIyWlLk6GJQsqaUBKTNV-1" source="WIyWlLk6GJQsqaUBKTNV-10" target="WIyWlLk6GJQsqaUBKTNV-12" edge="1">
          <mxGeometry y="10" relative="1" as="geometry">
            <mxPoint as="offset" />
          </mxGeometry>
        </mxCell>
        <mxCell id="WIyWlLk6GJQsqaUBKTNV-10" value="有利于我方" style="rhombus;whiteSpace=wrap;html=1;shadow=0;fontFamily=Helvetica;fontSize=12;align=center;strokeWidth=1;spacing=6;spacingTop=-4;" parent="WIyWlLk6GJQsqaUBKTNV-1" vertex="1">
          <mxGeometry x="170" y="290" width="100" height="80" as="geometry" />
        </mxCell>
        <mxCell id="YrawLR0GKXedVqUMtWlx-43" style="edgeStyle=orthogonalEdgeStyle;rounded=0;orthogonalLoop=1;jettySize=auto;html=1;entryX=0.5;entryY=0;entryDx=0;entryDy=0;" edge="1" parent="WIyWlLk6GJQsqaUBKTNV-1" source="YrawLR0GKXedVqUMtWlx-44" target="YrawLR0GKXedVqUMtWlx-39">
          <mxGeometry relative="1" as="geometry">
            <Array as="points">
              <mxPoint x="220" y="620" />
              <mxPoint x="410" y="620" />
            </Array>
          </mxGeometry>
        </mxCell>
        <mxCell id="YrawLR0GKXedVqUMtWlx-49" style="edgeStyle=orthogonalEdgeStyle;rounded=0;orthogonalLoop=1;jettySize=auto;html=1;entryX=0;entryY=0.75;entryDx=0;entryDy=0;" edge="1" parent="WIyWlLk6GJQsqaUBKTNV-1" source="WIyWlLk6GJQsqaUBKTNV-11" target="YrawLR0GKXedVqUMtWlx-21">
          <mxGeometry relative="1" as="geometry">
            <Array as="points">
              <mxPoint x="320" y="455" />
              <mxPoint x="320" y="455" />
            </Array>
          </mxGeometry>
        </mxCell>
        <mxCell id="WIyWlLk6GJQsqaUBKTNV-11" value="按数字标号的证据" style="rounded=1;whiteSpace=wrap;html=1;fontSize=12;glass=0;strokeWidth=1;shadow=0;fillColor=#dae8fc;strokeColor=#6c8ebf;" parent="WIyWlLk6GJQsqaUBKTNV-1" vertex="1">
          <mxGeometry x="160" y="420" width="120" height="60" as="geometry" />
        </mxCell>
        <mxCell id="YrawLR0GKXedVqUMtWlx-20" value="" style="edgeStyle=orthogonalEdgeStyle;rounded=0;orthogonalLoop=1;jettySize=auto;html=1;" edge="1" parent="WIyWlLk6GJQsqaUBKTNV-1" source="WIyWlLk6GJQsqaUBKTNV-12" target="YrawLR0GKXedVqUMtWlx-19">
          <mxGeometry relative="1" as="geometry" />
        </mxCell>
        <mxCell id="WIyWlLk6GJQsqaUBKTNV-12" value="不利证据" style="rounded=1;whiteSpace=wrap;html=1;fontSize=12;glass=0;strokeWidth=1;shadow=0;" parent="WIyWlLk6GJQsqaUBKTNV-1" vertex="1">
          <mxGeometry x="340" y="310" width="120" height="40" as="geometry" />
        </mxCell>
        <mxCell id="YrawLR0GKXedVqUMtWlx-3" value="" style="edgeStyle=orthogonalEdgeStyle;rounded=0;orthogonalLoop=1;jettySize=auto;html=1;" edge="1" parent="WIyWlLk6GJQsqaUBKTNV-1" source="YrawLR0GKXedVqUMtWlx-1" target="YrawLR0GKXedVqUMtWlx-2">
          <mxGeometry relative="1" as="geometry" />
        </mxCell>
        <mxCell id="YrawLR0GKXedVqUMtWlx-4" value="" style="edgeStyle=orthogonalEdgeStyle;rounded=0;orthogonalLoop=1;jettySize=auto;html=1;" edge="1" parent="WIyWlLk6GJQsqaUBKTNV-1" source="YrawLR0GKXedVqUMtWlx-1" target="YrawLR0GKXedVqUMtWlx-2">
          <mxGeometry relative="1" as="geometry" />
        </mxCell>
        <mxCell id="YrawLR0GKXedVqUMtWlx-5" value="" style="edgeStyle=orthogonalEdgeStyle;rounded=0;orthogonalLoop=1;jettySize=auto;html=1;" edge="1" parent="WIyWlLk6GJQsqaUBKTNV-1" source="YrawLR0GKXedVqUMtWlx-1" target="YrawLR0GKXedVqUMtWlx-2">
          <mxGeometry relative="1" as="geometry" />
        </mxCell>
        <mxCell id="YrawLR0GKXedVqUMtWlx-6" value="" style="edgeStyle=orthogonalEdgeStyle;rounded=0;orthogonalLoop=1;jettySize=auto;html=1;" edge="1" parent="WIyWlLk6GJQsqaUBKTNV-1" source="YrawLR0GKXedVqUMtWlx-1" target="YrawLR0GKXedVqUMtWlx-2">
          <mxGeometry relative="1" as="geometry" />
        </mxCell>
        <mxCell id="YrawLR0GKXedVqUMtWlx-8" style="edgeStyle=orthogonalEdgeStyle;rounded=0;orthogonalLoop=1;jettySize=auto;html=1;exitX=1;exitY=0.25;exitDx=0;exitDy=0;" edge="1" parent="WIyWlLk6GJQsqaUBKTNV-1" source="YrawLR0GKXedVqUMtWlx-1" target="YrawLR0GKXedVqUMtWlx-7">
          <mxGeometry relative="1" as="geometry" />
        </mxCell>
        <mxCell id="YrawLR0GKXedVqUMtWlx-10" value="" style="edgeStyle=orthogonalEdgeStyle;rounded=0;orthogonalLoop=1;jettySize=auto;html=1;" edge="1" parent="WIyWlLk6GJQsqaUBKTNV-1" source="YrawLR0GKXedVqUMtWlx-1" target="YrawLR0GKXedVqUMtWlx-12">
          <mxGeometry relative="1" as="geometry">
            <mxPoint x="220" y="50" as="targetPoint" />
          </mxGeometry>
        </mxCell>
        <mxCell id="YrawLR0GKXedVqUMtWlx-1" value="与客户沟通" style="rounded=1;whiteSpace=wrap;html=1;" vertex="1" parent="WIyWlLk6GJQsqaUBKTNV-1">
          <mxGeometry x="170" y="-30" width="100" height="50" as="geometry" />
        </mxCell>
        <mxCell id="YrawLR0GKXedVqUMtWlx-33" style="edgeStyle=orthogonalEdgeStyle;rounded=0;orthogonalLoop=1;jettySize=auto;html=1;dashed=1;exitX=1;exitY=0.5;exitDx=0;exitDy=0;" edge="1" parent="WIyWlLk6GJQsqaUBKTNV-1" source="YrawLR0GKXedVqUMtWlx-2">
          <mxGeometry relative="1" as="geometry">
            <mxPoint x="500" y="410" as="targetPoint" />
            <mxPoint x="490" y="30" as="sourcePoint" />
            <Array as="points">
              <mxPoint x="500" y="30" />
            </Array>
          </mxGeometry>
        </mxCell>
        <mxCell id="YrawLR0GKXedVqUMtWlx-2" value="初步策略" style="whiteSpace=wrap;html=1;rounded=1;" vertex="1" parent="WIyWlLk6GJQsqaUBKTNV-1">
          <mxGeometry x="340" width="120" height="60" as="geometry" />
        </mxCell>
        <mxCell id="YrawLR0GKXedVqUMtWlx-26" style="edgeStyle=orthogonalEdgeStyle;rounded=0;orthogonalLoop=1;jettySize=auto;html=1;" edge="1" parent="WIyWlLk6GJQsqaUBKTNV-1" source="YrawLR0GKXedVqUMtWlx-7" target="YrawLR0GKXedVqUMtWlx-24">
          <mxGeometry relative="1" as="geometry" />
        </mxCell>
        <mxCell id="YrawLR0GKXedVqUMtWlx-55" style="edgeStyle=orthogonalEdgeStyle;rounded=0;orthogonalLoop=1;jettySize=auto;html=1;dashed=1;dashPattern=8 8;" edge="1" parent="WIyWlLk6GJQsqaUBKTNV-1" source="YrawLR0GKXedVqUMtWlx-7">
          <mxGeometry relative="1" as="geometry">
            <mxPoint x="970" y="70" as="targetPoint" />
          </mxGeometry>
        </mxCell>
        <mxCell id="YrawLR0GKXedVqUMtWlx-58" value="目光回转" style="edgeLabel;html=1;align=center;verticalAlign=middle;resizable=0;points=[];" vertex="1" connectable="0" parent="YrawLR0GKXedVqUMtWlx-55">
          <mxGeometry x="0.1705" y="-1" relative="1" as="geometry">
            <mxPoint y="1" as="offset" />
          </mxGeometry>
        </mxCell>
        <mxCell id="YrawLR0GKXedVqUMtWlx-7" value="初步案情" style="rounded=1;whiteSpace=wrap;html=1;" vertex="1" parent="WIyWlLk6GJQsqaUBKTNV-1">
          <mxGeometry x="340" y="-80" width="120" height="60" as="geometry" />
        </mxCell>
        <mxCell id="YrawLR0GKXedVqUMtWlx-13" value="" style="edgeStyle=orthogonalEdgeStyle;rounded=0;orthogonalLoop=1;jettySize=auto;html=1;" edge="1" parent="WIyWlLk6GJQsqaUBKTNV-1" source="YrawLR0GKXedVqUMtWlx-12" target="WIyWlLk6GJQsqaUBKTNV-6">
          <mxGeometry relative="1" as="geometry" />
        </mxCell>
        <mxCell id="YrawLR0GKXedVqUMtWlx-17" value="" style="edgeStyle=orthogonalEdgeStyle;rounded=0;orthogonalLoop=1;jettySize=auto;html=1;" edge="1" parent="WIyWlLk6GJQsqaUBKTNV-1" source="YrawLR0GKXedVqUMtWlx-12" target="YrawLR0GKXedVqUMtWlx-16">
          <mxGeometry relative="1" as="geometry" />
        </mxCell>
        <mxCell id="YrawLR0GKXedVqUMtWlx-12" value="遍历证据材料并筛选" style="rounded=1;whiteSpace=wrap;html=1;" vertex="1" parent="WIyWlLk6GJQsqaUBKTNV-1">
          <mxGeometry x="162.5" y="70" width="115" height="60" as="geometry" />
        </mxCell>
        <mxCell id="YrawLR0GKXedVqUMtWlx-25" value="" style="edgeStyle=orthogonalEdgeStyle;rounded=0;orthogonalLoop=1;jettySize=auto;html=1;" edge="1" parent="WIyWlLk6GJQsqaUBKTNV-1" source="YrawLR0GKXedVqUMtWlx-15" target="YrawLR0GKXedVqUMtWlx-24">
          <mxGeometry relative="1" as="geometry" />
        </mxCell>
        <mxCell id="YrawLR0GKXedVqUMtWlx-54" style="edgeStyle=orthogonalEdgeStyle;rounded=0;orthogonalLoop=1;jettySize=auto;html=1;entryX=0.5;entryY=0;entryDx=0;entryDy=0;dashed=1;dashPattern=8 8;" edge="1" parent="WIyWlLk6GJQsqaUBKTNV-1" source="YrawLR0GKXedVqUMtWlx-15" target="YrawLR0GKXedVqUMtWlx-52">
          <mxGeometry relative="1" as="geometry">
            <Array as="points">
              <mxPoint x="570" y="40" />
              <mxPoint x="970" y="40" />
            </Array>
          </mxGeometry>
        </mxCell>
        <mxCell id="YrawLR0GKXedVqUMtWlx-59" value="目光回转" style="edgeLabel;html=1;align=center;verticalAlign=middle;resizable=0;points=[];" vertex="1" connectable="0" parent="YrawLR0GKXedVqUMtWlx-54">
          <mxGeometry x="0.2261" y="-1" relative="1" as="geometry">
            <mxPoint y="1" as="offset" />
          </mxGeometry>
        </mxCell>
        <mxCell id="YrawLR0GKXedVqUMtWlx-15" value="案件大事记" style="rounded=1;whiteSpace=wrap;html=1;fillColor=#dae8fc;strokeColor=#6c8ebf;" vertex="1" parent="WIyWlLk6GJQsqaUBKTNV-1">
          <mxGeometry x="550" y="70" width="120" height="60" as="geometry" />
        </mxCell>
        <mxCell id="YrawLR0GKXedVqUMtWlx-18" value="" style="edgeStyle=orthogonalEdgeStyle;rounded=0;orthogonalLoop=1;jettySize=auto;html=1;" edge="1" parent="WIyWlLk6GJQsqaUBKTNV-1" source="YrawLR0GKXedVqUMtWlx-16" target="YrawLR0GKXedVqUMtWlx-15">
          <mxGeometry relative="1" as="geometry" />
        </mxCell>
        <mxCell id="YrawLR0GKXedVqUMtWlx-60" value="&lt;b style=&quot;font-size: 14px;&quot;&gt;&lt;font style=&quot;font-size: 14px;&quot;&gt;时间排序&lt;/font&gt;&lt;/b&gt;" style="edgeLabel;html=1;align=center;verticalAlign=middle;resizable=0;points=[];fontColor=#FFFFFF;labelBackgroundColor=#007FFF;fontSize=14;" vertex="1" connectable="0" parent="YrawLR0GKXedVqUMtWlx-18">
          <mxGeometry x="-0.36" y="1" relative="1" as="geometry">
            <mxPoint x="11" y="1" as="offset" />
          </mxGeometry>
        </mxCell>
        <mxCell id="YrawLR0GKXedVqUMtWlx-16" value="总结法律事实" style="rounded=1;whiteSpace=wrap;html=1;" vertex="1" parent="WIyWlLk6GJQsqaUBKTNV-1">
          <mxGeometry x="340" y="70" width="120" height="60" as="geometry" />
        </mxCell>
        <mxCell id="YrawLR0GKXedVqUMtWlx-32" style="edgeStyle=orthogonalEdgeStyle;rounded=0;orthogonalLoop=1;jettySize=auto;html=1;entryX=0.5;entryY=0;entryDx=0;entryDy=0;" edge="1" parent="WIyWlLk6GJQsqaUBKTNV-1" source="YrawLR0GKXedVqUMtWlx-19" target="YrawLR0GKXedVqUMtWlx-21">
          <mxGeometry relative="1" as="geometry" />
        </mxCell>
        <mxCell id="YrawLR0GKXedVqUMtWlx-19" value="思考应对" style="whiteSpace=wrap;html=1;rounded=1;glass=0;strokeWidth=1;shadow=0;" vertex="1" parent="WIyWlLk6GJQsqaUBKTNV-1">
          <mxGeometry x="550" y="300" width="120" height="60" as="geometry" />
        </mxCell>
        <mxCell id="YrawLR0GKXedVqUMtWlx-35" value="" style="edgeStyle=orthogonalEdgeStyle;rounded=0;orthogonalLoop=1;jettySize=auto;html=1;" edge="1" parent="WIyWlLk6GJQsqaUBKTNV-1" source="YrawLR0GKXedVqUMtWlx-21" target="YrawLR0GKXedVqUMtWlx-34">
          <mxGeometry relative="1" as="geometry" />
        </mxCell>
        <mxCell id="YrawLR0GKXedVqUMtWlx-45" style="edgeStyle=orthogonalEdgeStyle;rounded=0;orthogonalLoop=1;jettySize=auto;html=1;entryX=1;entryY=0.25;entryDx=0;entryDy=0;" edge="1" parent="WIyWlLk6GJQsqaUBKTNV-1" source="YrawLR0GKXedVqUMtWlx-21" target="WIyWlLk6GJQsqaUBKTNV-11">
          <mxGeometry relative="1" as="geometry" />
        </mxCell>
        <mxCell id="YrawLR0GKXedVqUMtWlx-46" value="我们有这个证据吗？" style="edgeLabel;html=1;align=center;verticalAlign=middle;resizable=0;points=[];labelBorderColor=none;labelBackgroundColor=#007FFF;fontColor=#FFFFFF;fontSize=14;" vertex="1" connectable="0" parent="YrawLR0GKXedVqUMtWlx-45">
          <mxGeometry x="0.0043" y="-2" relative="1" as="geometry">
            <mxPoint as="offset" />
          </mxGeometry>
        </mxCell>
        <mxCell id="YrawLR0GKXedVqUMtWlx-47" style="edgeStyle=orthogonalEdgeStyle;rounded=0;orthogonalLoop=1;jettySize=auto;html=1;exitX=0;exitY=0.75;exitDx=0;exitDy=0;entryX=1;entryY=0.5;entryDx=0;entryDy=0;startArrow=classicThin;startFill=0;" edge="1" parent="WIyWlLk6GJQsqaUBKTNV-1" source="YrawLR0GKXedVqUMtWlx-21" target="YrawLR0GKXedVqUMtWlx-44">
          <mxGeometry relative="1" as="geometry">
            <Array as="points">
              <mxPoint x="361" y="455" />
              <mxPoint x="361" y="547" />
              <mxPoint x="360" y="547" />
              <mxPoint x="360" y="580" />
            </Array>
          </mxGeometry>
        </mxCell>
        <mxCell id="YrawLR0GKXedVqUMtWlx-48" value="相互影响" style="edgeLabel;html=1;align=center;verticalAlign=middle;resizable=0;points=[];" vertex="1" connectable="0" parent="YrawLR0GKXedVqUMtWlx-47">
          <mxGeometry x="0.112" y="-4" relative="1" as="geometry">
            <mxPoint as="offset" />
          </mxGeometry>
        </mxCell>
        <mxCell id="YrawLR0GKXedVqUMtWlx-21" value="庭审策略制定" style="whiteSpace=wrap;html=1;rounded=1;glass=0;strokeWidth=1;shadow=0;" vertex="1" parent="WIyWlLk6GJQsqaUBKTNV-1">
          <mxGeometry x="440" y="410" width="120" height="60" as="geometry" />
        </mxCell>
        <mxCell id="YrawLR0GKXedVqUMtWlx-50" style="edgeStyle=orthogonalEdgeStyle;rounded=0;orthogonalLoop=1;jettySize=auto;html=1;entryX=1;entryY=0.5;entryDx=0;entryDy=0;startArrow=block;startFill=0;" edge="1" parent="WIyWlLk6GJQsqaUBKTNV-1" source="YrawLR0GKXedVqUMtWlx-24" target="YrawLR0GKXedVqUMtWlx-21">
          <mxGeometry relative="1" as="geometry">
            <Array as="points">
              <mxPoint x="770" y="440" />
            </Array>
          </mxGeometry>
        </mxCell>
        <mxCell id="YrawLR0GKXedVqUMtWlx-51" value="反复循环" style="edgeLabel;html=1;align=center;verticalAlign=middle;resizable=0;points=[];" vertex="1" connectable="0" parent="YrawLR0GKXedVqUMtWlx-50">
          <mxGeometry x="-0.3538" y="-2" relative="1" as="geometry">
            <mxPoint as="offset" />
          </mxGeometry>
        </mxCell>
        <mxCell id="YrawLR0GKXedVqUMtWlx-56" style="edgeStyle=orthogonalEdgeStyle;rounded=0;orthogonalLoop=1;jettySize=auto;html=1;startArrow=classic;startFill=0;" edge="1" parent="WIyWlLk6GJQsqaUBKTNV-1" source="YrawLR0GKXedVqUMtWlx-24" target="YrawLR0GKXedVqUMtWlx-52">
          <mxGeometry relative="1" as="geometry" />
        </mxCell>
        <mxCell id="YrawLR0GKXedVqUMtWlx-24" value="类案检索" style="whiteSpace=wrap;html=1;rounded=1;fillColor=#dae8fc;strokeColor=#6c8ebf;" vertex="1" parent="WIyWlLk6GJQsqaUBKTNV-1">
          <mxGeometry x="710" y="70" width="120" height="60" as="geometry" />
        </mxCell>
        <mxCell id="YrawLR0GKXedVqUMtWlx-40" value="" style="edgeStyle=orthogonalEdgeStyle;rounded=0;orthogonalLoop=1;jettySize=auto;html=1;" edge="1" parent="WIyWlLk6GJQsqaUBKTNV-1" source="YrawLR0GKXedVqUMtWlx-34" target="YrawLR0GKXedVqUMtWlx-39">
          <mxGeometry relative="1" as="geometry" />
        </mxCell>
        <mxCell id="YrawLR0GKXedVqUMtWlx-34" value="撰写起诉书/答辩状" style="whiteSpace=wrap;html=1;rounded=1;glass=0;strokeWidth=1;shadow=0;" vertex="1" parent="WIyWlLk6GJQsqaUBKTNV-1">
          <mxGeometry x="440" y="550" width="120" height="60" as="geometry" />
        </mxCell>
        <mxCell id="YrawLR0GKXedVqUMtWlx-39" value="提交材料&lt;br&gt;等待开庭" style="whiteSpace=wrap;html=1;rounded=1;glass=0;strokeWidth=1;shadow=0;" vertex="1" parent="WIyWlLk6GJQsqaUBKTNV-1">
          <mxGeometry x="350" y="680" width="120" height="60" as="geometry" />
        </mxCell>
        <mxCell id="YrawLR0GKXedVqUMtWlx-53" style="edgeStyle=orthogonalEdgeStyle;rounded=0;orthogonalLoop=1;jettySize=auto;html=1;entryX=1;entryY=0.75;entryDx=0;entryDy=0;" edge="1" parent="WIyWlLk6GJQsqaUBKTNV-1" source="YrawLR0GKXedVqUMtWlx-52" target="YrawLR0GKXedVqUMtWlx-21">
          <mxGeometry relative="1" as="geometry">
            <Array as="points">
              <mxPoint x="970" y="455" />
            </Array>
          </mxGeometry>
        </mxCell>
        <mxCell id="YrawLR0GKXedVqUMtWlx-52" value="请求权基础（法条）" style="rounded=1;whiteSpace=wrap;html=1;" vertex="1" parent="WIyWlLk6GJQsqaUBKTNV-1">
          <mxGeometry x="910" y="70" width="120" height="60" as="geometry" />
        </mxCell>
        <mxCell id="YrawLR0GKXedVqUMtWlx-62" value="" style="edgeStyle=orthogonalEdgeStyle;rounded=0;orthogonalLoop=1;jettySize=auto;html=1;entryX=0.5;entryY=0;entryDx=0;entryDy=0;" edge="1" parent="WIyWlLk6GJQsqaUBKTNV-1" source="WIyWlLk6GJQsqaUBKTNV-11" target="YrawLR0GKXedVqUMtWlx-44">
          <mxGeometry relative="1" as="geometry">
            <mxPoint x="220" y="480" as="sourcePoint" />
            <mxPoint x="410" y="680" as="targetPoint" />
            <Array as="points" />
          </mxGeometry>
        </mxCell>
        <mxCell id="YrawLR0GKXedVqUMtWlx-44" value="证据目录" style="rounded=1;whiteSpace=wrap;html=1;" vertex="1" parent="WIyWlLk6GJQsqaUBKTNV-1">
          <mxGeometry x="162.5" y="550" width="120" height="60" as="geometry" />
        </mxCell>
      </root>
    </mxGraphModel>
  </diagram>
</mxfile>
